<svg viewBox="20.7 244.9 512 512" xmlns="http://www.w3.org/2000/svg"><g fill="none" stroke-miterlimit="10"><path d="M121.45 489.894h172.28l70.397-26.729a9.607 9.607 0 005.57-12.392l-55.205-145.417a9.604 9.604 0 00-12.392-5.57L90.106 380.273a9.604 9.604 0 00-5.567 12.392z" fill="#f3ac47"/><path d="M293.732 489.894l70.403-26.729a9.552 9.552 0 005.21-4.793L220.26 403.646l-46.37 86.248z" fill="#f19a3d"/><path d="M84.383 386.421l149.6 53.37 75.2-139.88a9.549 9.549 0 00-7.08-.125l-211.994 80.49a9.541 9.541 0 00-5.726 6.145z" fill="#ffd15c"/></g><g transform="matrix(20.9196 0 0 20.9196 26.176 230.103)"><path d="M23.77 11.079c-.069-.045-1.498-.947-2.849-.732-.327-1.369-1.583-2.222-1.645-2.263a.499.499 0 00-.638.069c-.1.104-.967 1.074-.722 3.282a.52.52 0 01-.126.411.447.447 0 01-.342.154H.5a.5.5 0 00-.5.5C0 20.172 5.595 21 8 21c6.193 0 10.498-3.762 12.377-7.077 2.476-.395 3.509-2.094 3.554-2.168a.501.501 0 00-.161-.676z" fill="#303c42"/><path d="M20.002 12.965a.5.5 0 00-.382.261C17.942 16.351 13.891 20 8 20c-2.546 0-6.772-.924-6.991-7h16.439c.422 0 .809-.173 1.089-.486.287-.321.424-.754.375-1.189-.113-1.02.053-1.687.214-2.069.375.361.874.985.874 1.744 0 .173.09.334.237.426a.503.503 0 00.486.021c.595-.3 1.44-.048 2.015.212-.432.455-1.301 1.138-2.736 1.306z" fill="#42a5f5"/><path d="M20.002 12.465a.5.5 0 00-.382.261C17.942 15.851 13.891 19.5 8 19.5c-2.472 0-6.518-.886-6.951-6.5h-.04c.218 6.076 4.445 7 6.991 7 5.892 0 9.942-3.649 11.62-6.774a.5.5 0 01.382-.261c1.436-.168 2.305-.851 2.736-1.306a4.894 4.894 0 00-.384-.15c-.492.399-1.254.827-2.352.956z" opacity=".1"/><circle cx="5.041" cy="16" r="1" fill="#303c42"/><circle cx="5.469" cy="15.729" r=".323" fill="#fff"/><path d="M23.77 11.079c-.069-.045-1.498-.947-2.849-.732-.327-1.369-1.583-2.222-1.645-2.263a.499.499 0 00-.638.069c-.1.104-.967 1.074-.722 3.282a.52.52 0 01-.126.411.447.447 0 01-.342.154H17V9.5a.5.5 0 00-.5-.5H14V3.5a.5.5 0 00-.5-.5h-3a.5.5 0 00-.5.5V6H4.5a.5.5 0 00-.5.5V9H1.5a.5.5 0 00-.5.5V12H.5a.5.5 0 00-.5.5C0 20.172 5.595 21 8 21c6.193 0 10.498-3.762 12.377-7.077 2.476-.395 3.509-2.094 3.554-2.168a.501.501 0 00-.161-.676z" fill="url(#a)"/></g><path d="M23.77 11.079c-.069-.045-1.498-.947-2.849-.732-.327-1.369-1.583-2.222-1.645-2.263a.499.499 0 00-.638.069c-.1.104-.967 1.074-.722 3.282a.52.52 0 01-.126.411.447.447 0 01-.342.154H17V9.5a.5.5 0 00-.5-.5H14V3.5a.5.5 0 00-.5-.5h-3a.5.5 0 00-.5.5V6H4.5a.5.5 0 00-.5.5V9H1.5a.5.5 0 00-.5.5V12H.5a.5.5 0 00-.5.5C0 20.172 5.595 21 8 21c6.193 0 10.498-3.762 12.377-7.077 2.476-.395 3.509-2.094 3.554-2.168a.501.501 0 00-.161-.676z" fill="url(#a)" transform="matrix(20.84137 0 0 20.84137 27.432 232.025)"/></svg>