<?xml version="1.0" encoding="UTF-8" standalone="no"?>
<svg
  id="dmo-logo-monochromatic"
  viewBox="20 244 512 512"
  xmlns="http://www.w3.org/2000/svg"
>
  <g id="envelope">
    <path
      id="base"
      d="m 122,490 h 172 l 70,-27 a 10,10 0 0 0 6,-12 L 315,305 A 10,10 0 0 0 302,300 L 90,380 a 10,10 0 0 0 -6,12 z"
      fill="#e3e3e3"
    />
    <path
      id="bottom"
      d="m 294,490 70,-27 a 10,10 0 0 0 5,-5 L 220,404 174,490 Z"
      fill="#d4d4d4"
    />
    <path
      id="top"
      d="m 84,387 150,53 75,-140 a 10,10 0 0 0 -7,0 l -212,80 a 10,10 0 0 0 -6,6 z"
      fill="#ffffff"
    />
  </g>
  <path
    id="whale-silhouette"
    d="M 403,153 C 401,153 398,154 396,156 c -2,3 -20,23 -16,69 1,3 0,7 -2,9 -1,2 -4,3 -7,3 H 16.6 c -2.6,0 -5.4,1 -7.6,3 -2,2 -3,5 -3,8 0,160 117,177 168,177 129,0 219,-78 258,-148 52,-8 74,-43 75,-45 3,-5 1,-11 -4,-14 -1,-1 -31,-20 -59,-15 -7,-29 -33,-47 -35,-48 -1.75,-1.3 -3.7,-1.86 -5.66,-1.8 z M 112,300 a 21,21 0 0 1 21,21 21,21 0 0 1 -21,21 21,21 0 0 1 -21,-21 21,21 0 0 1 21,-21 z"
    fill="#ffffff"
    transform="translate(20,244)"
  />
</svg>
