<svg viewBox="20 244 512 512" xmlns="http://www.w3.org/2000/svg"><path d="M122 490h172l70-27a10 10 0 0 0 6-12l-55-146a10 10 0 0 0-13-5L90 380a10 10 0 0 0-6 12z" fill="#e3e3e3"/><path d="m294 490 70-27a10 10 0 0 0 5-5l-149-54-46 86z" fill="#d4d4d4"/><path d="m84 387 150 53 75-140a10 10 0 0 0-7 0L90 380a10 10 0 0 0-6 6z" fill="#fff"/><path d="M423 397c-2 0-5 1-7 3-2 3-20 23-16 69 1 3 0 7-2 9-1 2-4 3-7 3H36.6c-2.6 0-5.4 1-7.6 3-2 2-3 5-3 8 0 160 117 177 168 177 129 0 219-78 258-148 52-8 74-43 75-45 3-5 1-11-4-14-1-1-31-20-59-15-7-29-33-47-35-48-1.75-1.3-3.7-1.86-5.66-1.8zM132 544a21 21 0 0 1 21 21 21 21 0 0 1-21 21 21 21 0 0 1-21-21 21 21 0 0 1 21-21z" fill="#fff"/></svg>