<svg viewBox="20 244 512 512" xmlns="http://www.w3.org/2000/svg"><path d="M122 490h172l70-27a10 10 0 0 0 6-12l-55-146a10 10 0 0 0-13-5L90 380a10 10 0 0 0-6 12z" fill="#f3ac47"/><path d="m294 490 70-27a10 10 0 0 0 5-5l-149-54-46 86z" fill="#f19a3d"/><path d="m84 387 150 53 75-140a10 10 0 0 0-7 0L90 380a10 10 0 0 0-6 6z" fill="#ffd15c"/><g><path d="M523 462c-1-1-31-20-59-15-7-29-33-47-35-48-4-3-9-2-13 1-2 3-20 23-16 69 1 3 0 7-2 9-1 2-4 3-7 3H36.6c-2.6 0-5.4 1-7.6 3-2 2-3 5-3 8 0 160 117 177 168 177 129 0 219-78 258-148 52-8 74-43 75-45 3-5 1-11-4-14z" fill="#303c42"/><path d="M445 501c-4 1-7 3-8 6-35 65-120 142-243 142-54 0-142-20-147-147h344c9 0 17-4 23-10 6-7 9-16 8-25-2-21 1-35 4-43 8 7 19 20 19 36 0 4 1 7 5 9 3 2 6 2 10 1 12-7 30-1 42 4-9 10-27 24-57 27z" fill="#42a5f5"/><path d="M445 491c-4 0-7 2-8 5-35 66-120 142-243 142-52 0-137-18-146-136h-1c5 127 93 147 147 147 123 0 208-77 243-142 1-3 4-5 8-6 30-3 48-17 57-27-3-1-5-2-8-3-10 8-26 17-49 20z" opacity=".1"/><circle cx="132" cy="565" r="21" fill="#303c42"/><circle cx="141" cy="559" r="6.76" fill="#fff"/></g></svg>