<svg viewBox="20.7 244.9 512 512" xmlns="http://www.w3.org/2000/svg"><defs><filter id="a" x="0" y="0" width="1" height="1" color-interpolation-filters="sRGB"><feColorMatrix values="0.21 0.72 0.072 0.18 0 0.21 0.72 0.072 0.18 0 0.21 0.72 0.072 0.18 0 0 0 0 1 0"/></filter></defs><g fill="none" stroke-miterlimit="10" transform="matrix(2.4982 0 0 2.4982 29.044 225.184)" filter="url(#a)"><path d="M37.133 105.617h68.54l28.007-10.634a3.822 3.822 0 002.216-4.93L113.933 32.2a3.821 3.821 0 00-4.93-2.216l-84.34 32.021a3.821 3.821 0 00-2.215 4.93z" fill="#f3ac47"/><path d="M105.674 105.617l28.009-10.634a3.8 3.8 0 002.073-1.907L76.443 71.304l-18.448 34.313z" fill="#f19a3d"/><path d="M22.386 64.451l59.517 21.233 29.918-55.65a3.799 3.799 0 00-2.817-.05l-84.34 32.022a3.796 3.796 0 00-2.278 2.445z" fill="#ffd15c"/></g><path d="M422.26 398.804a10.4 10.4 0 00-6.387 3.14c-2.084 2.168-20.154 22.384-15.048 68.401a10.838 10.838 0 01-2.626 8.568 9.316 9.316 0 01-7.127 3.208H37.852a10.42 10.42 0 00-10.42 10.421c0 159.895 116.607 177.151 166.73 177.151 129.072 0 218.793-78.405 257.954-147.494 51.603-8.233 73.133-43.642 74.07-45.184a10.442 10.442 0 00-3.355-14.088c-1.438-.938-31.22-19.736-59.377-15.255-6.815-28.532-32.991-46.31-34.283-47.165a10.4 10.4 0 00-6.911-1.703zM132.494 544.646a20.841 20.841 0 0120.84 20.84 20.841 20.841 0 01-20.84 20.843 20.841 20.841 0 01-20.842-20.842 20.841 20.841 0 0120.842-20.84z" fill="#fff"/><path d="M23.77 11.079c-.069-.045-1.498-.947-2.849-.732-.327-1.369-1.583-2.222-1.645-2.263a.499.499 0 00-.638.069c-.1.104-.967 1.074-.722 3.282a.52.52 0 01-.126.411.447.447 0 01-.342.154H17V9.5a.5.5 0 00-.5-.5H14V3.5a.5.5 0 00-.5-.5h-3a.5.5 0 00-.5.5V6H4.5a.5.5 0 00-.5.5V9H1.5a.5.5 0 00-.5.5V12H.5a.5.5 0 00-.5.5C0 20.172 5.595 21 8 21c6.193 0 10.498-3.762 12.377-7.077 2.476-.395 3.509-2.094 3.554-2.168a.501.501 0 00-.161-.676z" fill="url(#a)" transform="matrix(20.84137 0 0 20.84137 27.432 232.025)"/></svg>